<?xml version="1.0" standalone="no"?>
<!DOCTYPE svg PUBLIC "-//W3C//DTD SVG 20010904//EN"
 "http://www.w3.org/TR/2001/REC-SVG-20010904/DTD/svg10.dtd">
<svg version="1.0" xmlns="http://www.w3.org/2000/svg"
 width="2608.000000pt" height="2608.000000pt" viewBox="0 0 2608.000000 2608.000000"
 preserveAspectRatio="xMidYMid meet">

<g transform="translate(0.000000,2608.000000) scale(0.100000,-0.100000)"
fill="#fefdff" stroke="none">
<path d="M14923 25064 c-3 -8 -1 -26 5 -39 6 -14 14 -55 18 -92 4 -38 10 -72
14 -78 4 -5 11 -28 14 -50 26 -163 49 -240 86 -295 10 -14 20 -46 24 -71 4
-26 20 -67 36 -93 17 -26 30 -51 30 -57 0 -5 11 -26 23 -47 13 -20 27 -49 31
-64 3 -15 20 -43 36 -62 17 -18 30 -40 30 -49 0 -8 7 -20 16 -27 8 -8 23 -30
33 -49 37 -74 50 -93 69 -107 11 -7 24 -33 31 -58 6 -24 18 -46 26 -50 8 -3
40 -44 71 -91 31 -48 63 -89 71 -92 8 -3 23 -25 35 -49 11 -24 26 -44 32 -44
12 0 76 -81 76 -96 0 -4 21 -31 48 -59 85 -95 132 -149 159 -188 14 -20 55
-68 90 -105 112 -120 124 -134 138 -172 4 -8 25 -28 48 -44 23 -15 62 -55 87
-88 25 -32 66 -81 92 -109 27 -27 48 -53 48 -57 0 -4 16 -24 36 -43 20 -18 47
-50 59 -69 13 -19 35 -48 49 -64 14 -16 26 -33 26 -39 0 -5 25 -36 55 -69 30
-32 55 -67 55 -77 0 -10 11 -28 25 -41 14 -13 25 -30 25 -37 0 -7 4 -21 9 -31
17 -32 31 -136 21 -146 -6 -6 -10 -25 -10 -43 0 -18 -4 -33 -10 -33 -5 0 -33
-19 -62 -43 -51 -41 -126 -77 -161 -77 -9 0 -26 -4 -37 -10 -11 -5 -29 -14
-40 -20 -11 -5 -26 -10 -34 -10 -7 0 -19 -6 -25 -14 -6 -7 -39 -16 -74 -19
-57 -6 -87 -11 -214 -37 -27 -5 -73 -13 -104 -19 -31 -5 -66 -14 -77 -20 -11
-6 -41 -11 -66 -11 -25 0 -48 -4 -51 -10 -4 -6 -54 -10 -118 -10 -70 0 -136
-6 -172 -15 -35 -9 -75 -13 -96 -10 -20 4 -56 1 -80 -6 -88 -24 -126 -31 -209
-40 -131 -12 -204 -24 -218 -33 -8 -4 -57 -12 -110 -17 -176 -15 -217 -21
-233 -36 -10 -8 -45 -18 -79 -23 -35 -5 -68 -14 -73 -19 -6 -6 -33 -11 -59
-11 -71 0 -141 -18 -229 -59 -25 -11 -57 -21 -71 -21 -13 0 -33 -7 -44 -15
-10 -8 -35 -15 -54 -15 -19 0 -44 -7 -54 -15 -11 -8 -30 -15 -43 -15 -13 0
-33 -9 -45 -20 -12 -11 -31 -20 -42 -20 -12 0 -30 -7 -40 -15 -11 -8 -29 -15
-41 -15 -19 0 -69 -22 -159 -72 -17 -9 -39 -17 -48 -18 -9 0 -20 -4 -23 -10
-3 -5 -13 -10 -21 -10 -9 0 -30 -11 -48 -25 -18 -14 -38 -25 -44 -25 -7 0 -12
-4 -12 -10 0 -5 -5 -10 -12 -10 -6 0 -25 -11 -42 -24 -18 -13 -51 -30 -75 -39
-24 -8 -60 -27 -80 -43 -20 -16 -52 -37 -71 -48 -19 -10 -55 -35 -80 -55 -25
-21 -59 -45 -75 -53 -17 -9 -39 -26 -50 -38 -11 -13 -38 -34 -60 -48 -22 -14
-58 -42 -80 -62 -22 -21 -93 -87 -158 -146 -65 -60 -159 -156 -209 -214 -51
-58 -98 -108 -104 -113 -7 -4 -26 -29 -42 -56 -17 -26 -44 -58 -60 -70 -17
-12 -36 -36 -42 -55 -6 -18 -22 -44 -35 -56 -14 -13 -39 -44 -55 -69 -16 -25
-55 -66 -87 -91 l-58 -45 -95 0 c-83 1 -102 4 -145 27 -27 14 -61 38 -74 52
-14 14 -30 26 -38 26 -7 0 -30 18 -50 41 -21 22 -50 47 -66 55 -15 8 -38 32
-52 54 -14 22 -40 50 -59 62 -19 12 -40 37 -47 55 -7 18 -16 33 -20 33 -13 0
-69 64 -69 78 0 7 -16 29 -36 49 -20 19 -51 59 -69 87 -18 28 -52 75 -74 105
-23 30 -41 60 -41 67 0 6 -18 29 -40 50 -22 21 -46 55 -54 76 -9 20 -23 45
-33 55 -46 45 -103 132 -103 155 0 16 -9 32 -24 41 -19 13 -84 100 -141 188
-41 64 -73 110 -102 145 -18 23 -33 48 -33 56 0 8 -15 23 -34 33 -23 13 -44
37 -62 72 -14 29 -32 53 -38 53 -17 0 -76 59 -76 76 0 7 -9 16 -20 19 -11 4
-39 31 -61 61 -26 35 -47 54 -60 54 -18 0 -20 -4 -14 -27 4 -16 11 -82 15
-148 5 -66 14 -147 19 -180 6 -33 11 -189 11 -347 0 -158 4 -289 8 -292 5 -3
9 -77 10 -165 1 -116 6 -172 18 -207 9 -26 13 -60 10 -76 -3 -16 0 -39 6 -51
13 -24 24 -90 36 -212 4 -44 12 -89 18 -100 6 -11 14 -41 17 -66 6 -42 22 -89
48 -141 5 -10 9 -27 9 -37 0 -11 5 -23 10 -26 6 -3 10 -16 10 -29 0 -12 7 -31
15 -42 8 -10 15 -30 15 -44 0 -14 9 -40 20 -58 11 -18 20 -41 20 -50 0 -10 11
-29 25 -42 14 -13 25 -33 25 -45 0 -30 22 -72 68 -127 22 -26 43 -63 46 -83 5
-27 17 -41 46 -60 21 -13 46 -40 55 -59 9 -19 28 -42 41 -51 13 -8 36 -33 50
-55 15 -22 43 -50 63 -61 20 -11 47 -35 59 -54 13 -18 34 -36 48 -39 13 -4 41
-22 62 -40 20 -18 66 -48 102 -66 36 -18 84 -46 107 -62 24 -16 75 -39 115
-52 40 -13 98 -35 129 -49 31 -14 96 -33 145 -43 49 -9 94 -21 100 -26 21 -16
34 -122 34 -278 0 -139 -3 -166 -25 -234 -13 -43 -33 -92 -43 -110 -11 -18
-25 -50 -32 -70 -18 -54 -193 -226 -266 -260 -30 -14 -54 -30 -54 -35 0 -5
-24 -21 -53 -35 -29 -13 -82 -53 -119 -88 -53 -51 -69 -73 -81 -114 -15 -52
-9 -122 12 -149 5 -5 12 -26 16 -45 8 -40 46 -109 87 -160 15 -19 28 -40 28
-47 0 -8 20 -54 45 -103 53 -106 56 -128 15 -158 -16 -13 -36 -37 -44 -56 -7
-18 -34 -60 -60 -94 -26 -33 -52 -78 -60 -99 -7 -21 -27 -60 -44 -86 -16 -26
-38 -78 -48 -115 -9 -37 -21 -72 -25 -77 -4 -6 -13 -29 -18 -50 -6 -22 -17
-65 -25 -95 -41 -149 -34 -319 18 -440 15 -36 33 -80 40 -97 15 -41 81 -137
121 -176 17 -17 72 -65 123 -107 87 -72 101 -80 206 -114 62 -20 148 -41 192
-46 232 -28 304 -47 391 -102 42 -26 78 -42 99 -42 21 -1 34 -6 34 -14 0 -7 4
-11 9 -8 5 3 14 -1 21 -9 23 -27 105 -67 175 -85 39 -10 82 -23 97 -28 87 -35
203 -52 351 -52 150 0 221 9 347 46 30 9 76 20 102 24 104 19 171 42 281 94
97 47 129 68 201 137 47 44 106 109 130 143 25 35 56 70 69 79 13 8 29 29 36
45 7 16 24 35 37 43 14 7 36 31 49 54 13 22 40 49 60 59 20 11 43 32 52 46 8
15 32 35 52 45 20 11 53 36 73 56 20 20 62 51 92 68 31 18 74 48 97 67 22 19
45 34 51 34 6 0 49 22 97 49 48 27 104 54 125 60 21 5 46 16 55 24 28 24 133
73 206 96 39 13 87 34 109 48 21 14 52 26 70 28 41 4 147 34 160 44 24 20 171
64 286 87 19 3 73 19 120 35 47 16 130 37 185 48 55 11 132 32 170 46 108 41
144 52 220 68 39 8 95 25 125 37 30 12 78 31 105 42 28 11 75 26 105 34 30 8
87 30 125 48 39 19 90 40 114 47 24 7 68 28 98 46 29 17 88 49 131 69 42 20
99 52 126 71 26 18 54 33 62 33 7 0 18 9 24 20 6 11 34 35 63 53 29 19 77 59
107 89 30 30 62 59 71 64 24 13 197 221 205 246 3 12 16 31 29 42 12 12 25 35
29 51 8 36 40 120 72 190 12 28 29 67 38 87 28 68 68 382 63 493 -6 123 -41
298 -69 345 -58 96 -88 153 -88 165 0 7 -15 26 -34 43 -19 16 -37 40 -41 53
-4 13 -33 49 -64 79 -31 31 -63 65 -72 75 -9 11 -55 57 -103 102 -47 45 -86
85 -86 88 0 4 -26 37 -58 74 -87 100 -144 181 -160 225 -7 23 -18 46 -23 52
-5 7 -21 40 -36 75 -34 84 -44 275 -19 360 27 94 96 228 147 287 27 32 61 72
76 90 15 17 32 32 36 32 5 0 42 29 83 65 50 44 83 65 100 65 15 0 43 15 67 35
22 19 50 35 62 35 12 0 32 11 45 25 13 14 33 25 46 25 12 0 32 11 45 25 13 13
32 25 41 25 9 0 20 5 23 10 3 6 15 10 25 10 29 0 113 39 141 66 15 14 41 26
60 28 38 3 61 10 102 32 16 7 35 14 42 14 7 0 15 3 17 8 5 12 109 60 161 74
26 7 47 15 47 19 0 4 22 16 48 27 27 12 55 28 62 37 7 8 21 15 32 15 11 0 34
11 52 25 18 14 39 25 47 25 8 0 25 9 39 20 14 11 30 20 36 20 6 0 17 7 24 15
7 8 20 15 29 15 9 1 32 21 51 45 19 25 41 45 47 45 7 0 32 19 55 43 24 23 51
47 62 52 24 13 54 63 55 93 1 12 12 40 26 62 14 22 25 46 25 54 0 8 5 18 10
21 12 8 14 212 1 219 -4 3 -14 34 -21 68 -6 34 -18 71 -26 82 -8 11 -14 30
-14 43 0 12 -4 25 -10 28 -5 3 -10 17 -10 31 0 29 -13 54 -57 111 -18 23 -33
49 -33 58 0 17 -58 95 -97 130 -13 11 -23 27 -23 34 0 8 -20 33 -45 57 -25 23
-45 47 -45 54 0 13 -113 124 -175 173 -19 15 -35 34 -35 43 0 8 -14 23 -30 33
-17 10 -55 41 -84 70 -30 28 -63 51 -75 51 -11 0 -32 15 -47 35 -14 19 -32 35
-38 35 -6 0 -31 20 -54 44 -24 25 -67 58 -95 74 -29 16 -61 39 -71 51 -11 11
-25 21 -32 21 -7 0 -22 12 -33 26 -11 14 -36 34 -55 44 -20 10 -50 30 -68 45
-101 83 -198 155 -209 155 -6 0 -31 16 -55 35 -23 19 -47 35 -52 35 -21 0 -70
32 -116 74 -27 26 -56 46 -65 46 -9 0 -32 13 -51 28 -19 16 -50 37 -67 47 -18
11 -33 23 -33 27 0 4 -8 8 -19 8 -10 0 -25 10 -34 23 -8 12 -35 33 -60 46 -25
13 -48 30 -51 37 -3 8 -14 14 -25 14 -10 0 -41 20 -68 44 -47 43 -78 64 -155
106 -20 11 -40 24 -43 30 -4 6 -21 17 -40 24 -18 8 -47 30 -65 49 -18 21 -53
43 -82 54 -28 10 -58 28 -67 40 -10 12 -36 32 -59 45 -23 13 -70 48 -104 78
-62 55 -100 80 -122 80 -6 1 -20 15 -31 33 -14 21 -30 33 -49 35 -17 2 -44 20
-70 48 -23 24 -50 44 -59 44 -9 0 -38 20 -64 45 -95 88 -104 95 -123 95 -10 0
-35 20 -56 45 -20 25 -44 45 -53 45 -8 0 -34 20 -56 44 -22 24 -53 51 -70 60
-40 22 -117 84 -133 107 -7 11 -19 19 -25 19 -7 0 -37 24 -68 53 -30 28 -67
61 -82 72 -15 11 -29 27 -32 35 -3 9 -21 24 -41 35 -20 11 -52 39 -71 62 -20
24 -40 43 -45 43 -15 0 -68 43 -68 55 0 7 -25 32 -55 56 -30 24 -55 46 -55 49
0 10 -51 60 -61 60 -5 0 -12 -7 -16 -16z m791 -936 c63 -62 120 -119 127 -127
75 -77 175 -170 279 -258 69 -59 138 -119 153 -135 15 -15 32 -28 37 -28 5 0
32 -20 59 -44 27 -24 59 -47 69 -51 11 -3 28 -17 37 -31 9 -14 39 -40 68 -59
29 -19 84 -59 122 -89 39 -31 75 -56 81 -56 5 0 25 -15 43 -34 19 -19 48 -40
65 -47 17 -7 55 -34 84 -59 29 -26 65 -53 80 -61 15 -7 45 -28 67 -45 22 -17
56 -39 75 -49 19 -9 51 -32 70 -51 20 -19 59 -49 87 -66 106 -68 165 -110 213
-153 28 -25 61 -47 74 -51 13 -3 38 -23 55 -45 18 -21 46 -46 64 -55 81 -42
452 -411 471 -469 3 -11 22 -38 42 -60 19 -22 60 -90 90 -152 54 -110 88 -231
115 -408 21 -142 2 -273 -58 -402 -18 -38 -114 -143 -130 -143 -7 0 -16 -6
-20 -13 -10 -16 -76 -57 -92 -57 -7 0 -35 -15 -64 -33 -67 -42 -114 -61 -212
-85 -44 -11 -111 -30 -150 -41 -38 -12 -124 -28 -190 -37 -66 -8 -154 -21
-195 -29 -156 -31 -411 -66 -585 -80 -251 -20 -423 -40 -690 -80 -126 -19
-293 -41 -370 -50 -77 -8 -165 -20 -195 -27 -30 -6 -75 -11 -99 -12 -38 -1
-47 3 -72 34 -45 56 -47 138 -8 298 24 99 40 143 75 200 24 40 44 77 44 82 0
4 40 49 90 99 99 99 125 112 265 131 39 6 113 17 165 25 52 9 138 20 190 25
130 14 235 35 365 75 61 18 140 40 177 49 37 9 94 30 127 46 32 17 63 30 69
30 22 0 88 35 140 73 29 22 65 47 80 56 50 29 129 124 163 196 27 59 33 85 37
163 4 88 2 99 -38 222 -23 71 -50 137 -59 147 -10 10 -37 52 -61 93 -24 41
-62 96 -86 122 -24 25 -46 57 -49 71 -4 13 -20 34 -36 46 -16 12 -36 35 -44
51 -21 40 -139 164 -530 555 -364 365 -476 480 -551 570 -27 33 -64 75 -82 94
-18 18 -32 39 -32 46 0 7 -19 35 -43 61 -24 27 -56 80 -72 119 -16 39 -32 75
-37 81 -8 11 -1 24 14 24 4 0 59 -51 122 -112z m-589 -2985 c41 -40 45 -105
14 -208 -12 -39 -28 -97 -36 -130 -9 -33 -33 -97 -54 -142 -22 -44 -39 -89
-39 -98 0 -9 -25 -79 -55 -156 -30 -76 -55 -155 -55 -173 0 -28 -6 -39 -32
-57 -18 -12 -44 -32 -58 -44 -14 -12 -41 -28 -60 -35 -19 -7 -53 -30 -75 -51
-22 -21 -51 -42 -65 -47 -14 -6 -57 -36 -95 -69 -39 -32 -86 -66 -106 -76 -20
-11 -42 -29 -49 -42 -7 -13 -22 -26 -34 -29 -12 -3 -47 -29 -79 -58 -97 -91
-164 -148 -172 -148 -21 0 -531 -514 -582 -587 -24 -35 -62 -78 -130 -148 -23
-24 -51 -62 -63 -84 -11 -23 -25 -41 -30 -41 -5 0 -41 -44 -79 -97 -39 -54
-79 -109 -90 -123 -11 -14 -21 -30 -21 -36 0 -6 -16 -30 -37 -53 -38 -45 -117
-169 -166 -261 -15 -30 -41 -68 -55 -85 -15 -16 -35 -49 -44 -73 -10 -23 -25
-60 -35 -82 -9 -22 -22 -45 -30 -51 -7 -7 -34 -49 -58 -94 -25 -45 -54 -90
-65 -100 -11 -10 -20 -23 -20 -29 0 -6 -20 -52 -45 -101 -58 -116 -60 -167
-12 -240 27 -42 38 -50 73 -57 52 -8 118 -28 209 -63 39 -14 91 -33 116 -41
54 -16 132 -57 171 -90 16 -12 38 -26 50 -30 13 -4 43 -24 69 -45 25 -22 50
-39 55 -39 6 0 33 -24 60 -53 27 -29 61 -60 77 -70 15 -10 27 -23 27 -29 0 -6
20 -33 45 -59 25 -26 45 -55 45 -63 0 -8 11 -27 24 -43 41 -49 78 -125 67
-136 -14 -14 -59 17 -79 56 -10 17 -28 40 -41 51 -13 12 -46 44 -75 71 -28 28
-64 58 -81 68 -16 9 -55 33 -85 53 -30 19 -66 38 -80 41 -14 3 -41 17 -60 29
-95 62 -230 89 -435 88 -172 0 -256 -12 -332 -46 -65 -29 -233 -32 -308 -4
-27 10 -83 26 -123 36 -40 10 -109 34 -155 54 -61 26 -102 36 -162 41 -108 8
-125 13 -125 31 0 29 40 72 78 84 39 13 131 52 172 74 14 8 57 23 97 35 69 21
72 23 94 69 12 26 43 83 70 127 26 44 53 98 59 120 7 22 25 67 40 100 16 33
38 96 50 141 11 44 30 105 41 135 41 109 69 195 80 254 12 57 54 183 84 250 7
16 16 42 19 58 3 15 9 39 12 55 3 15 17 52 31 82 14 30 30 65 36 77 7 16 5 38
-7 82 -44 158 -60 398 -35 537 17 98 79 272 136 385 29 58 53 111 53 118 0 7
16 33 35 58 19 25 35 51 35 58 0 6 28 50 63 96 34 46 70 96 79 111 10 15 32
35 49 45 17 10 40 35 50 56 11 21 35 47 54 58 19 11 37 29 40 40 4 11 31 35
61 54 30 19 57 42 60 50 3 8 46 41 94 75 49 33 92 65 96 71 3 6 26 19 50 30
25 10 61 31 82 47 20 16 72 44 115 62 43 18 80 37 84 43 7 12 127 67 146 67 8
0 34 10 58 23 24 13 85 36 134 51 50 15 122 39 160 53 126 44 189 61 287 78
53 8 120 22 150 30 61 16 306 62 358 68 19 2 72 5 117 5 64 2 85 -2 98 -15z
m-4595 -553 c8 -25 25 -59 38 -77 12 -17 22 -34 22 -37 0 -3 13 -27 29 -53 16
-27 32 -59 36 -73 4 -14 18 -38 30 -55 13 -16 37 -58 54 -91 16 -34 48 -83 71
-109 22 -25 40 -54 40 -64 0 -9 8 -26 18 -37 10 -10 37 -45 60 -76 24 -32 47
-58 52 -58 6 0 10 -9 10 -21 0 -11 15 -34 34 -52 19 -18 41 -47 50 -65 9 -18
32 -42 51 -54 18 -13 41 -36 50 -51 10 -16 32 -38 50 -48 17 -11 37 -30 43
-43 6 -14 33 -37 59 -52 26 -15 59 -37 73 -49 42 -37 112 -72 170 -85 30 -7
68 -16 84 -21 44 -14 86 -11 177 12 94 23 127 41 207 111 77 67 86 65 78 -19
-7 -71 -14 -99 -53 -200 -12 -34 -23 -68 -23 -77 0 -8 -4 -18 -10 -21 -5 -3
-10 -14 -10 -24 0 -10 -17 -38 -39 -62 -21 -24 -46 -59 -55 -76 -9 -18 -20
-33 -25 -33 -4 0 -29 -18 -54 -40 -45 -40 -160 -95 -248 -119 -29 -8 -93 -11
-181 -9 l-135 3 -86 45 c-71 36 -98 58 -150 117 -34 39 -80 101 -101 137 -21
35 -46 72 -57 82 -10 9 -19 24 -19 32 0 18 -47 127 -70 162 -19 29 -56 129
-66 180 -3 19 -10 41 -14 50 -24 46 -60 166 -75 245 -10 50 -25 117 -35 150
-54 183 -72 260 -72 320 -1 36 -5 68 -10 71 -4 3 -8 18 -8 34 0 16 -6 57 -14
92 -8 35 -17 85 -21 111 -6 44 -5 48 12 45 11 -2 24 -20 33 -48z m4175 -1759
c21 -34 55 -305 55 -437 0 -131 -19 -242 -63 -374 -30 -88 -37 -100 -97 -158
-36 -35 -77 -70 -92 -78 -48 -25 -200 -64 -252 -64 -109 0 -416 81 -416 110 0
6 10 18 21 28 36 29 69 66 69 77 0 6 27 46 60 90 33 44 60 85 60 91 0 6 20 31
44 55 23 24 46 55 51 68 4 13 24 42 44 65 21 23 77 94 125 158 47 65 100 128
116 140 16 12 33 30 36 41 7 22 148 168 179 185 25 14 52 15 60 3z m-3040
-2511 c60 -14 68 -31 61 -130 -6 -84 -10 -111 -47 -307 -24 -128 -24 -177 1
-232 11 -24 20 -49 20 -56 0 -22 48 -53 108 -70 72 -21 318 -25 417 -7 126 24
175 42 219 81 22 21 55 47 71 58 19 14 49 58 83 125 28 56 52 107 52 112 0 14
61 147 81 176 9 14 22 43 29 65 19 62 49 105 72 105 12 0 35 -11 52 -24 17
-13 41 -26 53 -30 13 -4 35 -27 49 -52 14 -24 37 -53 50 -63 14 -11 50 -68 80
-128 49 -94 59 -125 81 -238 24 -129 24 -131 8 -239 -10 -64 -26 -130 -41
-160 -31 -66 -102 -154 -139 -173 -31 -15 -87 -50 -140 -86 -45 -31 -326 -91
-498 -106 -155 -14 -537 14 -667 48 -19 5 -62 15 -95 21 -33 7 -80 23 -105 37
-25 14 -74 41 -110 60 -36 20 -78 46 -93 59 -36 30 -121 133 -132 159 -66 163
-85 252 -74 356 10 100 73 301 110 354 16 22 38 59 49 82 12 24 36 53 55 66
19 13 44 36 56 51 22 29 31 33 139 72 72 26 87 28 145 14z"/>
<path d="M2630 22683 c-47 -7 -101 -19 -120 -25 -19 -7 -60 -13 -90 -14 -71
-2 -126 -16 -173 -42 -21 -12 -44 -22 -52 -22 -8 0 -15 -4 -15 -8 0 -12 -67
-42 -95 -42 -14 0 -25 -3 -25 -7 0 -9 -48 -33 -66 -33 -6 0 -17 -6 -23 -14 -7
-8 -35 -26 -64 -40 -29 -14 -74 -48 -101 -76 -43 -44 -46 -50 -30 -56 11 -4
30 -16 43 -26 13 -10 33 -18 45 -18 11 0 30 -7 40 -15 15 -11 48 -15 122 -15
58 0 106 -4 109 -10 4 -6 78 -10 190 -10 112 0 186 -4 190 -10 3 -5 25 -10 49
-10 23 0 46 -3 50 -7 4 -4 23 -8 43 -10 19 -1 43 -9 52 -18 10 -8 29 -15 44
-15 14 0 28 -4 32 -9 3 -5 19 -12 35 -16 19 -4 43 -23 67 -53 20 -26 52 -63
71 -83 l34 -37 -4 -110 c-3 -98 -6 -113 -25 -134 -36 -38 -29 -66 32 -131 30
-33 55 -62 55 -66 0 -4 11 -18 25 -31 14 -13 25 -31 25 -40 0 -9 11 -31 25
-50 14 -19 25 -42 25 -52 0 -10 5 -28 12 -41 6 -12 16 -31 21 -42 6 -11 12
-65 13 -120 2 -55 8 -158 13 -230 6 -71 11 -180 10 -242 0 -68 4 -114 10 -118
6 -3 11 -19 11 -35 0 -16 5 -32 10 -35 6 -3 10 -13 10 -21 0 -8 16 -36 35 -61
19 -25 35 -54 35 -64 0 -11 6 -19 13 -19 6 0 37 -20 67 -45 30 -25 64 -45 75
-45 11 0 30 -6 41 -14 27 -19 121 -28 319 -28 170 0 278 9 325 29 14 6 42 16
64 23 21 7 54 23 73 36 20 13 46 24 59 24 12 0 26 5 29 10 3 6 17 10 30 10 14
0 40 9 60 20 20 11 46 20 60 20 13 0 26 4 29 9 9 14 77 46 129 61 26 7 50 17
53 21 3 5 16 9 30 9 13 0 24 5 24 10 0 6 6 10 13 10 7 0 37 11 65 25 29 14 63
25 76 25 14 0 28 5 31 10 3 6 19 10 35 10 15 0 30 5 32 11 3 10 51 25 196 65
36 9 106 14 217 14 180 0 197 -4 273 -71 18 -16 46 -36 62 -44 17 -9 30 -20
30 -24 0 -5 22 -36 50 -68 27 -32 50 -66 50 -75 0 -9 5 -20 10 -23 6 -3 10
-17 10 -30 0 -13 5 -27 10 -30 6 -3 10 -14 10 -24 0 -10 7 -24 15 -31 8 -7 15
-27 15 -46 0 -18 5 -36 10 -39 16 -10 11 -42 -7 -48 -10 -3 -42 -20 -71 -36
-31 -18 -67 -31 -87 -31 -19 0 -37 -4 -40 -10 -3 -5 -15 -10 -25 -10 -10 0
-31 -10 -47 -23 -15 -13 -45 -31 -65 -40 -20 -10 -40 -22 -43 -27 -3 -6 -17
-10 -30 -10 -29 0 -90 -32 -126 -66 -14 -13 -32 -24 -41 -24 -9 0 -20 -4 -23
-10 -3 -5 -13 -10 -21 -10 -9 0 -40 -20 -68 -45 -29 -25 -58 -45 -63 -45 -6 0
-19 -11 -29 -25 -10 -14 -26 -25 -35 -25 -8 0 -26 -11 -39 -25 -13 -14 -27
-25 -31 -25 -4 0 -38 -29 -75 -65 -38 -35 -83 -72 -100 -81 -18 -10 -35 -26
-37 -35 -3 -10 -22 -29 -43 -42 -49 -32 -164 -150 -164 -168 0 -8 -36 -50 -80
-94 -43 -44 -79 -85 -80 -92 0 -6 -20 -31 -45 -55 -24 -24 -45 -48 -45 -53 0
-6 -20 -32 -45 -58 -28 -30 -45 -58 -45 -73 0 -14 -7 -27 -15 -31 -9 -3 -24
-22 -34 -42 -11 -20 -31 -47 -45 -60 -15 -14 -26 -36 -26 -50 0 -15 -15 -42
-35 -65 -19 -21 -35 -46 -35 -56 0 -9 -8 -28 -18 -41 -10 -13 -27 -41 -37 -62
-11 -21 -28 -45 -37 -54 -10 -9 -18 -24 -18 -35 0 -10 -4 -18 -10 -18 -5 0
-10 -7 -10 -15 0 -9 -10 -32 -23 -53 -26 -41 -67 -127 -67 -140 0 -4 -5 -13
-11 -19 -7 -7 -20 -35 -30 -62 -9 -28 -27 -64 -38 -80 -12 -16 -21 -38 -21
-49 0 -12 -4 -24 -10 -27 -5 -3 -10 -19 -10 -35 0 -16 -4 -31 -9 -34 -5 -3
-12 -18 -16 -33 -3 -15 -15 -39 -26 -54 -10 -15 -19 -38 -19 -52 0 -13 -11
-45 -25 -71 -14 -26 -25 -60 -25 -76 0 -16 -4 -32 -10 -35 -5 -3 -10 -14 -10
-24 0 -9 -10 -37 -22 -62 -27 -56 -40 -103 -43 -155 -2 -53 -25 -135 -42 -152
-7 -7 -13 -22 -13 -32 0 -10 -4 -22 -10 -25 -6 -3 -10 -17 -10 -30 0 -13 -4
-27 -10 -30 -5 -3 -10 -28 -10 -55 0 -27 -4 -52 -10 -55 -5 -3 -10 -30 -10
-60 0 -29 -6 -66 -14 -82 -21 -43 -36 -96 -36 -131 0 -17 -5 -34 -10 -37 -5
-3 -10 -22 -10 -41 0 -20 -5 -45 -12 -57 -15 -28 -27 -113 -34 -252 -4 -60
-10 -114 -14 -120 -4 -5 -8 -26 -8 -45 -1 -20 -8 -52 -17 -73 -19 -46 -19 -98
0 -161 21 -69 18 -120 -10 -201 -14 -38 -25 -78 -25 -88 0 -10 -10 -33 -23
-52 -30 -44 -144 -165 -156 -165 -5 0 -31 -20 -59 -45 -27 -25 -54 -45 -59
-45 -5 0 -25 -16 -44 -36 -18 -20 -51 -47 -71 -60 -51 -33 -208 -186 -208
-204 0 -7 -10 -24 -21 -36 -12 -13 -31 -42 -43 -66 -12 -24 -33 -49 -50 -56
-15 -8 -36 -27 -45 -43 -9 -16 -21 -29 -27 -29 -13 0 -63 -52 -78 -81 -6 -12
-20 -27 -30 -33 -23 -13 -75 -68 -76 -79 0 -5 -14 -20 -30 -34 -17 -14 -39
-42 -49 -62 -11 -20 -31 -47 -46 -61 -35 -33 -80 -100 -88 -131 -4 -14 -25
-40 -47 -58 -26 -21 -40 -40 -40 -56 0 -13 -11 -36 -23 -52 -47 -56 -95 -136
-90 -148 6 -17 -19 -64 -46 -89 -12 -11 -21 -27 -21 -37 0 -10 -4 -20 -9 -24
-14 -8 -41 -65 -41 -85 0 -9 -8 -34 -19 -56 -18 -39 -38 -84 -60 -137 -6 -15
-11 -43 -11 -61 0 -39 -26 -106 -40 -106 -6 0 -10 -11 -10 -25 0 -14 -5 -34
-10 -45 -5 -11 -14 -29 -20 -40 -5 -11 -10 -31 -10 -46 0 -14 -5 -35 -12 -47
-7 -12 -16 -49 -20 -82 -16 -126 -20 -150 -29 -159 -5 -6 -9 -24 -9 -42 0 -17
-6 -49 -13 -70 -8 -22 -12 -56 -9 -77 2 -23 -1 -44 -9 -54 -21 -25 -29 -183
-39 -818 -9 -600 -13 -683 -34 -700 -7 -5 -18 -37 -24 -69 -7 -32 -17 -65 -24
-74 -7 -8 -11 -28 -10 -46 3 -25 -3 -36 -27 -53 -21 -16 -28 -28 -24 -43 3
-13 -2 -32 -14 -48 -11 -15 -26 -44 -34 -65 -9 -25 -43 -67 -94 -116 -44 -43
-92 -91 -106 -107 -14 -16 -42 -44 -62 -63 -21 -19 -37 -41 -37 -50 0 -18 -14
-39 -66 -100 -17 -20 -47 -62 -67 -94 -20 -31 -41 -57 -47 -57 -5 0 -26 -33
-46 -72 -20 -40 -54 -94 -75 -119 -22 -26 -39 -55 -39 -65 0 -24 -60 -145 -83
-168 -10 -10 -15 -26 -12 -36 12 -39 -4 -50 -71 -50 l-64 0 0 -270 0 -270
12520 0 12520 0 0 -110 0 -110 -12520 0 -12520 0 0 -3250 0 -3250 12510 0
12510 0 0 -110 0 -110 -12510 0 -12510 0 0 -185 0 -185 12580 0 12580 0 0
3925 0 3925 -40 0 c-38 0 -40 2 -40 31 0 39 -26 135 -46 172 -9 16 -27 62 -40
103 -24 75 -63 152 -96 190 -10 12 -21 39 -25 60 -6 43 -45 124 -80 167 -13
16 -23 38 -23 50 0 12 -8 34 -18 48 -31 49 -99 134 -121 153 -11 11 -21 23
-21 28 0 10 -43 60 -117 135 -29 29 -53 57 -53 63 0 5 -17 21 -38 35 -21 13
-46 39 -57 57 -10 18 -39 53 -64 78 -90 89 -151 158 -151 169 0 6 -20 20 -45
31 -36 16 -49 29 -62 61 -11 29 -23 41 -42 45 -33 7 -52 22 -71 58 -8 15 -28
35 -44 44 -15 10 -48 36 -72 59 -23 23 -56 49 -71 58 -15 9 -48 41 -72 71 -24
30 -49 54 -55 54 -7 0 -30 18 -51 41 -22 22 -56 49 -75 59 -19 10 -55 39 -80
64 -24 25 -48 46 -53 46 -11 0 -41 30 -62 63 -9 15 -23 27 -30 27 -8 0 -34 24
-60 54 -25 30 -60 59 -76 65 -17 6 -33 20 -36 31 -3 11 -28 36 -57 56 -28 21
-66 54 -84 76 -19 21 -40 38 -47 38 -8 0 -19 9 -25 20 -14 26 -158 170 -193
193 -15 10 -32 29 -37 42 -5 13 -23 31 -40 40 -16 8 -30 22 -30 29 0 15 -86
96 -102 96 -5 0 -17 17 -26 39 -10 21 -31 50 -48 64 -17 14 -41 47 -54 73 -14
26 -33 49 -43 52 -17 4 -85 93 -117 152 -8 16 -27 38 -42 50 -16 12 -28 31
-28 42 0 11 -18 40 -40 64 -22 23 -49 63 -61 88 -12 25 -25 46 -30 46 -5 0 -9
5 -9 12 0 6 -11 26 -25 44 -14 18 -25 36 -25 41 0 4 -14 26 -30 47 -17 22 -30
48 -30 58 0 11 -11 39 -25 64 -14 25 -25 52 -25 60 0 17 -66 145 -79 154 -11
7 -41 66 -41 80 0 6 -19 34 -41 63 -23 29 -54 79 -70 112 -15 33 -44 75 -63
94 -19 19 -33 38 -30 42 3 5 -18 31 -46 58 -27 26 -50 53 -50 58 0 5 -20 32
-45 59 -25 27 -45 52 -45 56 0 5 -19 28 -42 52 -128 130 -197 203 -207 224 -6
12 -17 22 -22 22 -20 0 -86 59 -98 88 -7 15 -24 36 -39 45 -15 9 -67 55 -115
102 -49 47 -106 98 -127 114 -21 15 -62 53 -90 84 -29 32 -58 57 -64 57 -7 0
-31 18 -54 39 -23 22 -49 42 -59 45 -10 3 -34 26 -53 51 -19 24 -40 44 -47 45
-6 0 -53 41 -105 91 -51 51 -115 109 -143 130 -27 21 -61 52 -75 69 -14 16
-29 30 -35 30 -14 0 -120 94 -171 152 -11 13 -27 30 -36 38 -18 17 -257 261
-273 279 -5 6 -41 42 -80 79 -38 37 -86 90 -105 116 -19 27 -50 62 -67 79 -18
17 -33 37 -33 44 0 15 -25 57 -53 88 -29 32 -67 95 -67 109 0 8 -9 31 -19 53
-10 21 -31 62 -45 91 -14 30 -26 62 -26 72 0 11 -5 22 -10 25 -5 3 -10 17 -10
31 0 13 -4 32 -10 42 -5 9 -16 35 -25 57 -9 22 -21 48 -26 57 -5 10 -9 27 -9
37 0 11 -4 23 -10 26 -5 3 -10 21 -10 38 0 18 -6 52 -14 77 -8 25 -20 65 -27
90 -7 25 -16 49 -21 54 -4 6 -8 22 -8 36 0 14 -5 31 -12 38 -7 7 -15 38 -19
70 -10 81 -19 134 -29 157 -4 11 -15 36 -24 57 -9 20 -16 44 -16 54 0 19 -15
71 -35 119 -11 26 -35 128 -51 220 -5 29 -17 61 -35 97 -5 10 -9 26 -9 36 0
10 -5 23 -12 30 -14 14 -37 95 -38 135 0 25 -7 43 -32 87 -4 8 -11 22 -14 30
-3 8 -10 23 -15 32 -5 10 -9 29 -9 43 0 14 -4 25 -10 25 -5 0 -10 7 -10 15 0
18 -49 123 -61 131 -5 3 -9 16 -9 28 0 13 -7 29 -15 36 -9 7 -14 19 -11 26 3
7 -18 50 -46 96 -28 46 -55 98 -60 115 -5 18 -24 53 -43 78 -19 25 -35 49 -35
54 0 13 -28 63 -60 106 -55 75 -76 110 -90 152 -7 24 -33 66 -57 94 -23 28
-43 59 -43 69 0 10 -7 26 -16 35 -10 9 -36 47 -60 83 -42 66 -57 84 -108 131
-14 13 -26 34 -26 47 0 16 -17 43 -45 73 -25 26 -45 54 -45 62 -1 8 -19 27
-41 42 -33 23 -44 26 -55 16 -19 -16 -105 -59 -117 -59 -5 0 -23 -16 -40 -35
-18 -21 -40 -35 -54 -35 -22 0 -49 -21 -126 -96 -18 -17 -47 -39 -64 -50 -18
-10 -33 -22 -33 -27 0 -5 -18 -26 -40 -48 -45 -44 -85 -110 -95 -154 -4 -16
-14 -52 -23 -78 -19 -61 -12 -157 21 -287 20 -78 34 -110 80 -179 32 -46 57
-89 57 -94 0 -20 138 -167 156 -167 7 0 31 -25 55 -55 24 -30 50 -54 58 -55
14 0 141 -126 141 -139 0 -4 23 -32 50 -61 28 -29 50 -59 50 -66 0 -13 54
-118 73 -142 6 -8 21 -50 32 -95 12 -45 34 -125 48 -177 20 -71 29 -130 33
-230 9 -186 -12 -329 -75 -515 -11 -33 -21 -66 -21 -72 0 -12 -74 -175 -107
-238 -9 -16 -31 -47 -50 -68 -18 -20 -33 -43 -33 -50 0 -7 -19 -35 -42 -62
-63 -74 -307 -315 -319 -315 -5 0 -28 -17 -52 -38 -23 -21 -55 -44 -72 -52
-16 -8 -58 -36 -93 -62 -34 -26 -75 -51 -90 -54 -15 -4 -56 -24 -91 -45 -36
-22 -69 -39 -74 -39 -5 0 -59 -24 -121 -54 -61 -30 -131 -60 -156 -67 -25 -7
-97 -32 -160 -57 -63 -24 -151 -53 -195 -64 -44 -10 -111 -30 -148 -44 -38
-13 -103 -31 -145 -40 -42 -8 -135 -35 -207 -59 -71 -24 -157 -48 -190 -54
-33 -6 -123 -31 -200 -55 -77 -24 -169 -53 -205 -64 -36 -11 -102 -36 -148
-55 -46 -20 -97 -39 -115 -43 -37 -8 -163 -69 -172 -83 -3 -6 -12 -8 -20 -5
-16 7 -128 -47 -160 -77 -11 -10 -40 -25 -64 -34 -23 -8 -56 -25 -71 -37 -66
-53 -118 -88 -128 -88 -6 0 -34 -20 -61 -44 -27 -24 -58 -47 -68 -50 -10 -3
-28 -22 -40 -41 -13 -19 -35 -42 -50 -52 -39 -24 -163 -153 -163 -168 0 -18
-74 -109 -145 -178 -51 -49 -181 -155 -219 -179 -62 -37 -183 -99 -213 -108
-21 -7 -76 -27 -123 -45 -129 -50 -183 -62 -324 -76 -189 -18 -551 0 -621 30
-11 5 -47 19 -80 31 -33 12 -71 27 -85 35 -14 7 -42 16 -63 19 -22 4 -54 21
-75 40 -44 39 -63 50 -128 72 -27 9 -56 22 -64 28 -26 21 -161 55 -266 66
-134 14 -230 36 -332 76 -47 19 -90 34 -96 34 -6 0 -31 20 -55 45 -24 25 -49
45 -56 45 -23 0 -245 237 -245 261 0 7 -18 50 -41 97 -65 136 -72 172 -73 382
-1 126 3 201 13 235 26 100 43 151 60 190 10 22 26 67 36 100 16 55 49 123 66
135 4 3 20 30 35 60 14 30 43 78 63 105 75 103 74 100 51 145 -11 21 -20 45
-20 53 0 7 -14 29 -30 47 -17 19 -33 46 -37 60 -3 14 -20 55 -39 91 -80 161
-97 293 -48 385 31 59 91 133 113 142 9 3 30 15 46 28 17 12 47 28 69 35 21 8
46 23 55 34 9 11 33 33 53 48 76 56 151 127 189 178 22 29 43 55 48 59 5 3 17
25 26 50 10 25 23 59 30 75 30 71 39 115 39 190 1 44 -2 92 -6 106 -10 36 -67
77 -146 105 -36 13 -94 40 -128 59 -35 20 -94 47 -131 61 -38 14 -75 32 -83
39 -8 7 -51 30 -94 51 -44 21 -93 52 -110 69 -17 17 -50 39 -73 49 -24 11 -45
27 -49 38 -3 10 -23 30 -44 44 -21 14 -44 38 -50 54 -7 16 -32 46 -56 66 -25
19 -53 53 -64 75 -11 21 -29 43 -40 49 -12 6 -33 37 -49 68 -51 102 -61 119
-81 137 -11 10 -20 28 -20 40 0 13 -6 28 -14 34 -8 7 -26 36 -40 65 -14 29
-35 61 -46 71 -14 13 -20 31 -20 61 0 24 -4 46 -10 49 -5 3 -10 16 -10 29 0
12 -16 51 -35 86 -28 52 -35 76 -35 122 0 31 -4 60 -10 63 -5 3 -10 26 -10 49
0 25 -6 48 -14 55 -8 7 -16 31 -19 54 -3 23 -11 67 -16 97 -6 30 -14 80 -19
110 -4 30 -12 62 -17 70 -5 8 -12 93 -16 188 -3 95 -10 177 -16 183 -9 9 -89
-26 -117 -52 -6 -5 -25 -9 -42 -9 -18 0 -36 -4 -39 -10 -3 -5 -15 -10 -25 -10
-10 0 -47 -16 -83 -35 -36 -19 -76 -35 -90 -35 -14 0 -29 -4 -32 -10 -3 -5
-17 -10 -31 -10 -13 0 -42 -11 -64 -25 -22 -14 -46 -25 -54 -25 -7 0 -19 -6
-25 -14 -6 -7 -44 -24 -84 -36 -95 -29 -126 -40 -164 -56 -17 -8 -40 -14 -51
-14 -12 0 -24 -4 -27 -10 -3 -5 -18 -10 -33 -10 -32 -1 -118 -23 -128 -33 -4
-4 -18 -7 -30 -7 -13 0 -26 -4 -29 -10 -3 -5 -15 -10 -25 -10 -11 0 -36 -7
-57 -16 -69 -30 -78 -33 -133 -38 -113 -12 -168 -22 -184 -35 -9 -8 -35 -14
-59 -14 -23 1 -47 -4 -54 -9 -7 -5 -41 -11 -75 -13 -35 -2 -88 -8 -118 -14
-62 -12 -222 -6 -253 10 -11 6 -36 9 -56 5 -23 -3 -47 0 -65 9 -15 8 -39 15
-52 15 -12 0 -26 5 -29 10 -3 6 -21 10 -39 10 -18 0 -41 7 -52 15 -10 8 -33
15 -51 15 -17 0 -35 5 -38 10 -3 6 -15 10 -26 10 -10 0 -28 9 -38 19 -23 23
-107 71 -123 71 -27 0 -250 158 -271 191 -7 11 -18 19 -25 19 -7 0 -17 11 -22
25 -6 15 -17 25 -29 25 -11 0 -21 3 -23 8 -1 4 -22 22 -45 40 -24 19 -43 38
-43 43 0 5 -50 61 -112 125 -62 63 -117 122 -122 132 -5 9 -37 46 -72 82 -34
36 -72 77 -84 93 -12 15 -27 27 -35 27 -16 0 -65 56 -65 75 0 8 -13 22 -30 32
-16 9 -30 22 -30 28 0 16 -177 185 -194 185 -9 0 -23 11 -32 25 -9 14 -22 25
-29 25 -7 0 -24 11 -38 24 -44 41 -84 66 -106 66 -12 0 -38 11 -59 24 -41 26
-79 34 -197 43 -88 6 -208 -12 -226 -34 -6 -7 -20 -13 -30 -13 -10 0 -21 -4
-24 -10 -3 -5 -17 -10 -30 -10 -13 0 -27 -4 -30 -10 -3 -5 -13 -10 -21 -10 -9
0 -41 -20 -72 -44 -32 -24 -79 -56 -106 -71 -27 -14 -68 -47 -90 -73 -23 -26
-56 -60 -73 -77 -18 -16 -68 -63 -110 -102 -45 -42 -87 -73 -99 -73 -12 0 -27
-7 -34 -16 -18 -21 -89 -54 -116 -54 -13 0 -26 -4 -29 -10 -3 -5 -24 -10 -45
-10 -21 0 -41 -4 -44 -9 -3 -4 -25 -11 -48 -14 -24 -4 -61 -10 -83 -15 -76
-16 -215 7 -297 49 -10 5 -27 9 -38 9 -27 0 -75 25 -92 48 -7 9 -26 23 -41 30
-15 6 -30 20 -34 29 -3 10 -23 41 -45 69 -41 55 -61 122 -59 204 4 210 6 222
45 290 21 36 42 69 47 75 5 5 9 23 9 40 0 20 9 40 24 54 39 37 60 89 73 186
10 80 9 101 -8 186 -32 163 -69 218 -274 410 -25 23 -115 69 -136 69 -8 0 -51
18 -95 41 -100 51 -155 69 -221 69 -28 0 -55 5 -58 10 -3 6 -21 10 -40 10 -19
0 -60 7 -92 15 -72 19 -266 18 -383 -2z m215 -138 c129 -9 334 -34 375 -47 31
-9 62 -19 211 -67 19 -6 45 -11 57 -11 11 0 24 -5 27 -10 4 -6 28 -21 55 -35
123 -62 186 -127 207 -210 20 -85 -28 -186 -134 -280 -103 -91 -151 -121 -165
-107 -9 9 -8 18 1 38 18 41 25 137 12 177 -7 20 -35 70 -62 112 -59 89 -140
158 -254 216 -44 22 -98 51 -120 64 -22 14 -65 32 -95 40 -62 18 -180 64 -194
77 -6 4 -20 8 -33 8 -16 0 -23 6 -23 18 0 24 10 33 29 28 9 -2 57 -7 106 -11z
m15869 -5357 c-9 -66 -33 -160 -49 -195 -9 -18 -25 -69 -36 -115 -11 -46 -40
-123 -63 -173 -23 -49 -48 -110 -55 -135 -19 -65 -28 -84 -89 -181 -12 -20
-22 -43 -22 -51 0 -16 -54 -123 -75 -148 -7 -8 -18 -33 -25 -55 -7 -22 -26
-60 -43 -85 -17 -25 -39 -57 -48 -71 -10 -15 -21 -39 -25 -53 -3 -15 -23 -47
-44 -72 -21 -25 -50 -70 -66 -101 -16 -30 -43 -71 -60 -91 -17 -21 -35 -48
-39 -62 -4 -14 -28 -47 -52 -75 -25 -27 -85 -105 -134 -173 -50 -68 -96 -125
-102 -128 -7 -2 -23 -21 -36 -42 -13 -21 -38 -48 -57 -60 -18 -12 -42 -39 -53
-60 -11 -21 -31 -43 -45 -50 -15 -6 -36 -27 -47 -46 -11 -20 -29 -38 -40 -41
-11 -4 -46 -32 -78 -63 -110 -108 -294 -248 -360 -273 -13 -5 -38 -21 -54 -35
-34 -29 -142 -84 -164 -84 -8 0 -31 -9 -51 -20 -77 -41 -106 -50 -116 -40 -17
17 13 57 56 71 22 7 52 27 66 45 15 17 43 43 63 56 54 36 124 95 199 168 37
36 84 82 106 102 74 70 172 173 249 263 43 50 84 94 91 98 8 4 25 28 40 53 14
24 34 50 43 57 10 6 30 32 46 57 15 25 43 58 61 73 19 16 34 34 34 41 0 7 15
30 33 52 61 74 94 119 111 152 9 18 23 35 31 38 7 3 23 27 35 52 12 26 36 63
54 83 17 19 42 54 56 77 14 24 39 64 55 89 17 26 41 68 55 95 14 27 30 52 36
56 17 12 73 101 80 127 3 13 21 41 39 62 18 21 51 77 74 123 23 47 50 94 60
105 10 11 24 37 31 58 7 22 31 67 55 101 23 34 48 80 55 102 12 37 24 60 83
150 15 22 27 46 27 52 0 7 16 46 35 87 27 56 41 75 56 75 17 0 19 -5 13 -42z
m-10855 -953 c11 -52 14 -147 15 -375 0 -324 -8 -409 -65 -628 -11 -42 -27
-113 -35 -157 -13 -67 -36 -137 -95 -283 -5 -13 -9 -31 -9 -40 0 -10 -21 -51
-46 -92 -26 -41 -53 -93 -61 -115 -7 -22 -24 -51 -37 -65 -13 -14 -45 -56 -72
-95 -60 -85 -175 -203 -235 -240 -24 -15 -55 -38 -69 -50 -14 -12 -38 -26 -55
-29 -16 -4 -48 -16 -70 -26 -135 -62 -267 -86 -409 -75 -80 6 -96 10 -96 23 0
10 13 22 33 28 125 44 322 158 356 207 8 11 23 27 35 36 90 71 269 291 304
375 7 17 24 42 37 56 13 14 45 70 70 125 26 55 53 107 60 115 7 8 19 35 25 60
7 25 32 86 56 135 25 50 53 122 63 160 17 62 67 206 91 260 5 11 17 62 25 113
9 51 20 103 24 115 33 83 58 207 78 377 3 30 10 61 15 67 6 7 7 20 4 29 -11
29 5 65 27 62 17 -2 24 -16 36 -73z m6095 -1864 c28 -17 63 -42 76 -56 14 -15
40 -33 57 -40 28 -12 63 -42 160 -138 59 -58 100 -106 113 -132 8 -16 28 -44
45 -61 16 -17 40 -51 52 -75 101 -204 113 -251 112 -413 0 -137 -9 -181 -34
-181 -16 0 -21 8 -23 35 -2 32 -7 59 -43 220 -7 30 -36 99 -66 152 -29 53 -53
104 -53 112 0 9 -15 33 -34 53 -18 21 -36 47 -40 59 -3 11 -40 63 -81 115 -41
52 -75 97 -75 101 0 3 -16 16 -34 28 -19 11 -38 31 -42 43 -4 12 -31 47 -61
77 -87 87 -93 95 -93 113 0 23 4 22 64 -12z m3240 -236 c27 -8 66 -15 88 -15
21 0 38 -4 38 -9 0 -8 20 -13 112 -25 20 -3 53 -12 74 -21 20 -8 56 -15 80
-15 23 0 46 -4 49 -10 3 -5 19 -10 35 -10 16 0 32 -4 35 -10 3 -5 21 -10 39
-10 17 0 36 -4 41 -9 6 -6 23 -12 40 -15 57 -10 151 -51 162 -70 4 -8 35 -28
67 -45 32 -17 81 -51 108 -76 26 -25 55 -45 63 -45 8 0 15 -4 15 -10 0 -5 13
-10 29 -10 20 0 32 -6 35 -18 5 -16 29 -30 146 -86 50 -24 77 -40 98 -59 10
-10 23 -17 29 -17 6 0 26 -8 45 -17 18 -9 42 -21 52 -26 11 -5 39 -20 62 -33
24 -13 49 -24 57 -24 8 0 22 -9 32 -20 10 -11 31 -20 46 -20 15 0 30 -4 33 -9
13 -21 153 -81 187 -81 28 0 41 -6 53 -25 9 -14 26 -25 37 -25 11 0 37 -11 57
-25 20 -14 43 -25 50 -25 24 0 139 -60 162 -85 13 -14 34 -25 46 -25 13 0 26
-4 29 -10 3 -5 17 -10 30 -10 13 0 36 -10 52 -23 29 -23 53 -36 110 -57 18 -7
38 -19 44 -27 16 -18 146 -103 160 -103 14 0 81 -44 103 -69 11 -11 27 -21 36
-21 10 0 25 -11 34 -25 9 -14 23 -25 30 -25 8 0 31 -16 50 -35 20 -19 40 -35
44 -35 5 0 32 -25 60 -55 29 -30 57 -55 62 -55 11 0 69 -60 70 -71 0 -4 20
-29 45 -55 25 -27 45 -54 45 -60 0 -6 27 -37 60 -70 33 -32 60 -64 60 -71 0
-29 24 -61 56 -72 18 -7 55 -34 81 -62 25 -27 51 -49 58 -49 6 0 24 -14 41
-31 37 -39 112 -89 134 -89 9 0 40 -20 69 -45 29 -25 59 -45 68 -45 15 0 72
-36 84 -53 8 -12 50 -33 82 -41 15 -3 41 -19 59 -34 40 -33 73 -52 92 -52 7 0
25 -9 39 -20 14 -11 37 -20 52 -20 15 0 36 -10 49 -25 13 -14 30 -25 38 -25 8
0 29 -11 48 -25 19 -14 43 -25 53 -25 11 0 35 -11 53 -25 18 -14 38 -25 45
-25 7 0 22 -8 33 -18 12 -10 41 -25 65 -32 24 -8 62 -29 85 -47 22 -18 46 -33
51 -33 6 0 27 -11 47 -25 20 -14 45 -25 56 -25 10 0 33 -16 52 -35 19 -19 42
-35 51 -35 10 0 21 -4 24 -10 3 -5 13 -10 21 -10 8 0 47 -27 86 -60 50 -41 80
-60 99 -60 20 0 33 -9 49 -35 12 -19 29 -35 38 -35 20 -1 52 -27 68 -55 6 -11
33 -37 60 -57 27 -21 50 -42 52 -47 2 -5 23 -31 48 -57 104 -113 154 -175 154
-188 0 -8 6 -21 13 -28 17 -19 37 -56 37 -69 0 -6 9 -23 19 -38 22 -31 51
-106 51 -134 0 -26 31 -116 41 -123 5 -3 9 -20 9 -38 0 -17 4 -36 9 -41 12
-13 20 -79 29 -240 4 -71 12 -137 17 -145 6 -8 13 -51 16 -95 4 -44 10 -92 14
-107 l7 -28 -2536 0 c-2224 0 -2536 2 -2536 15 0 16 -35 82 -56 106 -8 8 -14
24 -15 35 0 10 -9 33 -20 49 -11 17 -22 38 -25 48 -4 9 -10 17 -15 17 -4 0
-28 28 -53 63 -24 34 -56 73 -70 86 -14 14 -26 30 -26 36 0 12 -64 89 -132
157 -21 20 -38 41 -38 46 0 4 -16 24 -36 43 -20 18 -40 44 -45 56 -5 13 -34
39 -66 59 -31 20 -76 56 -99 80 -28 29 -51 44 -67 44 -15 0 -35 11 -49 29 -14
16 -47 41 -74 56 -27 15 -53 33 -57 41 -4 8 -17 14 -27 14 -11 0 -29 14 -42
30 -22 30 -69 60 -93 60 -7 0 -28 16 -48 35 -20 19 -43 35 -52 35 -8 0 -15 4
-15 9 0 5 -13 11 -29 14 -16 3 -50 24 -75 47 -26 22 -53 40 -60 40 -7 0 -23
11 -36 25 -13 14 -28 25 -33 25 -5 0 -32 19 -60 43 -29 23 -63 48 -77 55 -14
7 -40 26 -59 42 -18 17 -38 30 -43 30 -5 0 -40 30 -77 68 -133 132 -156 152
-174 152 -10 0 -26 14 -35 31 -27 50 -53 80 -76 89 -12 4 -28 21 -36 36 -21
43 -51 74 -71 74 -10 0 -27 15 -38 34 -12 19 -32 41 -45 49 -13 9 -34 36 -46
61 -12 26 -27 46 -32 46 -18 0 -78 50 -78 65 0 8 -14 22 -31 31 -33 17 -86 71
-107 110 -7 13 -21 24 -32 24 -12 0 -29 16 -46 45 -16 28 -33 45 -45 45 -10 0
-31 17 -46 37 -15 20 -45 53 -65 73 -21 19 -38 40 -38 45 -1 15 -58 75 -71 75
-12 0 -49 38 -49 51 0 4 -44 51 -98 106 -55 54 -104 108 -111 121 -6 12 -17
22 -22 22 -12 0 -88 80 -89 93 0 4 -13 22 -29 40 -66 71 -111 129 -111 141 0
6 -16 27 -35 46 -20 19 -35 44 -35 56 0 13 -4 25 -9 28 -5 3 -21 32 -36 63
-15 32 -32 61 -38 65 -8 5 -11 39 -9 100 3 94 16 128 49 128 7 0 21 4 31 9 23
11 81 32 110 38 12 3 22 9 22 14 0 5 24 9 53 9 28 1 79 8 112 16 33 8 75 19
94 24 18 5 38 13 44 19 6 6 24 11 39 11 28 0 34 2 94 33 18 9 49 16 70 15 22
-1 64 8 94 20 30 12 65 22 77 22 13 0 31 4 41 9 36 19 99 39 157 52 33 7 64
16 70 21 5 4 17 8 26 8 9 0 40 16 68 35 33 23 62 35 84 35 33 0 79 19 127 53
13 9 30 17 38 17 7 0 25 11 40 25 23 22 47 30 74 26 18 -2 76 30 101 57 16 17
49 35 75 43 30 8 65 29 98 59 30 26 70 51 95 59 24 7 52 17 61 22 10 5 27 9
37 9 11 0 23 5 26 10 3 6 17 10 29 10 13 0 29 7 36 15 18 22 353 21 424 0z
m-9964 -405 c61 -13 91 -29 127 -70 20 -22 40 -40 46 -40 5 0 34 -22 65 -50
31 -27 60 -50 64 -50 13 0 88 -83 88 -97 0 -7 11 -13 25 -13 17 0 32 -10 47
-35 13 -19 28 -35 33 -35 6 0 26 -14 45 -31 52 -45 131 -102 163 -119 16 -8
42 -29 58 -47 15 -18 34 -33 42 -33 7 0 26 -13 42 -30 16 -16 57 -44 92 -62
35 -17 86 -51 114 -75 28 -24 59 -43 70 -43 10 0 19 -4 19 -10 0 -5 9 -10 20
-10 27 0 70 -22 94 -49 11 -12 25 -21 32 -21 7 0 35 -12 61 -26 133 -73 303
-154 322 -154 10 0 32 -11 51 -25 19 -14 43 -25 54 -25 12 -1 32 -7 46 -14
l25 -14 -3 -149 c-3 -120 0 -154 12 -179 9 -17 21 -58 27 -90 6 -33 15 -63 20
-68 5 -6 9 -17 9 -26 0 -20 71 -163 92 -187 9 -10 26 -37 38 -60 12 -24 27
-43 33 -43 14 0 67 -51 67 -64 0 -13 74 -76 89 -76 5 0 16 -8 23 -18 17 -22
63 -52 81 -52 8 0 27 -16 41 -35 15 -19 35 -35 46 -35 10 0 21 -8 24 -17 3
-10 28 -33 56 -52 27 -19 50 -39 50 -46 0 -15 56 -65 72 -65 16 0 48 -30 48
-46 0 -7 17 -23 38 -35 20 -13 52 -40 71 -61 18 -21 48 -45 66 -53 19 -7 41
-27 49 -43 9 -17 32 -40 52 -52 20 -13 40 -35 45 -49 5 -14 30 -39 55 -56 26
-17 52 -44 60 -62 8 -18 20 -33 27 -33 17 0 87 -66 87 -83 0 -7 13 -23 30 -35
16 -12 41 -47 55 -77 13 -30 30 -55 37 -55 14 0 68 -79 68 -99 0 -14 20 -49
43 -75 10 -12 21 -33 24 -49 3 -15 10 -30 14 -33 5 -3 9 -18 9 -35 0 -16 5
-29 10 -29 6 0 10 -9 10 -21 0 -11 4 -28 9 -38 6 -9 12 -43 15 -74 3 -32 10
-67 16 -78 13 -24 8 -171 -8 -239 -6 -25 -16 -67 -21 -93 -6 -27 -14 -54 -18
-60 -4 -7 -9 -27 -10 -45 -1 -18 -9 -39 -17 -47 -13 -13 -505 -15 -4133 -15
l-4119 0 -13 53 c-15 62 -29 148 -39 237 -4 36 -14 76 -21 89 -8 14 -11 40 -8
62 3 20 0 42 -5 47 -6 6 -14 68 -19 139 -5 70 -12 150 -15 176 -4 30 -2 53 5
60 6 6 11 18 11 27 0 9 27 48 60 86 40 46 60 78 60 95 0 17 16 42 45 73 25 27
45 56 45 66 0 10 7 23 15 30 8 7 15 16 15 21 0 5 20 35 45 67 25 31 45 65 45
74 0 9 5 20 10 23 5 3 10 13 10 21 0 8 16 28 35 45 19 17 35 40 35 50 0 10 5
19 10 19 6 0 10 7 10 15 0 8 20 43 45 77 25 34 45 71 45 83 0 11 16 36 35 55
19 19 35 38 35 43 0 4 10 23 23 40 32 45 47 94 47 158 0 30 5 70 10 89 23 77
32 128 34 201 1 46 7 83 15 93 9 10 11 30 8 58 -4 24 -2 75 4 113 6 39 12 95
14 125 2 30 9 69 16 85 7 17 16 57 20 90 24 177 44 292 59 335 22 61 58 129
83 158 8 9 20 34 28 55 8 23 19 37 30 37 10 0 37 23 60 50 23 28 47 50 54 50
6 0 29 13 51 29 65 48 174 101 207 101 18 1 43 7 57 15 14 8 37 14 52 15 14 0
28 5 30 11 4 13 56 18 338 28 138 4 239 4 260 -2 19 -5 80 -11 135 -13 54 -2
104 -9 109 -14 6 -6 31 -10 57 -10 26 0 51 -4 54 -10 3 -5 20 -9 38 -8 52 1
181 -13 192 -22 6 -5 60 -11 120 -14 61 -2 160 -10 220 -17 135 -16 417 -16
505 -1 36 6 90 15 120 20 70 10 136 40 215 97 35 25 68 45 73 45 5 0 26 16 46
35 21 19 44 35 51 35 20 0 85 37 116 66 14 13 30 24 37 24 7 0 12 5 12 10 0 6
4 10 10 10 5 0 26 11 46 25 20 14 44 25 52 25 8 0 25 11 38 25 13 14 32 25 42
25 27 0 86 26 101 44 7 8 26 18 42 21 16 4 31 11 34 16 4 5 15 9 25 9 10 0 20
6 22 12 3 9 28 12 81 10 46 -1 78 2 82 9 4 6 18 8 34 3 14 -3 42 -10 61 -14z
m4165 -890 c3 -5 -4 -19 -17 -29 -13 -11 -45 -42 -73 -68 -27 -26 -64 -57 -81
-68 -17 -11 -52 -35 -78 -54 -25 -19 -67 -44 -94 -55 -26 -12 -67 -33 -92 -48
-25 -14 -72 -34 -105 -43 -33 -10 -85 -28 -115 -40 -165 -69 -286 -87 -570
-89 -306 -1 -440 20 -580 93 -19 10 -56 24 -82 31 -26 7 -53 19 -59 26 -6 8
-16 14 -21 14 -5 0 -29 14 -53 30 -24 17 -48 30 -54 30 -21 0 -271 232 -271
251 0 16 -10 20 160 -64 63 -31 147 -64 185 -73 39 -9 79 -20 90 -25 11 -4 56
-18 100 -29 166 -43 231 -50 492 -50 294 0 415 13 633 69 41 11 109 25 150 31
64 10 125 29 325 99 17 6 63 20 103 32 40 12 75 26 78 30 7 12 21 11 29 -1z
m398 -247 c6 -4 32 -9 57 -11 25 -2 49 -8 55 -13 5 -5 21 -9 35 -9 14 0 35 -7
46 -15 10 -8 24 -15 31 -15 6 0 24 -12 40 -27 76 -72 124 -111 169 -133 27
-14 55 -32 62 -42 7 -9 26 -24 42 -32 17 -9 45 -24 62 -33 18 -9 50 -33 70
-53 20 -19 62 -48 92 -64 31 -16 65 -40 77 -52 13 -13 28 -24 35 -24 14 0 93
-41 136 -71 14 -11 31 -19 37 -19 6 0 11 -4 11 -10 0 -5 6 -10 14 -10 7 0 19
-7 26 -15 7 -8 25 -15 40 -15 15 0 33 -7 40 -15 7 -8 49 -32 94 -53 106 -51
175 -82 180 -82 3 0 22 -11 42 -25 20 -14 51 -25 69 -25 18 0 38 -7 45 -15 7
-8 17 -15 22 -15 6 0 22 -9 37 -20 16 -10 62 -30 103 -44 41 -13 100 -40 131
-60 31 -20 67 -36 81 -36 14 0 28 -4 31 -10 3 -5 19 -10 34 -10 29 0 86 -24
96 -41 4 -5 15 -9 26 -9 10 0 19 -3 19 -8 0 -4 15 -13 33 -20 17 -7 47 -20 65
-28 18 -8 42 -14 52 -14 11 0 28 -4 38 -9 25 -13 119 -56 175 -80 27 -12 66
-21 86 -21 27 0 44 -7 61 -25 14 -15 35 -25 51 -25 15 0 31 -4 34 -10 3 -5 14
-10 24 -10 27 0 73 -26 106 -60 16 -16 34 -30 41 -30 29 0 244 -244 244 -276
0 -4 6 -15 14 -23 7 -9 24 -45 36 -81 12 -36 27 -71 33 -78 6 -8 10 -28 9 -44
-1 -17 4 -41 12 -53 8 -13 17 -59 20 -111 3 -49 10 -136 15 -194 5 -58 13
-187 19 -286 6 -100 15 -191 21 -202 6 -11 11 -48 11 -81 0 -33 5 -63 10 -66
6 -3 10 -31 10 -61 l0 -54 -888 0 -888 0 -14 63 c-7 34 -17 69 -21 77 -4 8
-15 31 -23 50 -18 38 -26 52 -68 117 -16 23 -28 47 -28 53 0 6 -18 29 -41 51
-22 21 -38 43 -34 48 3 5 -22 34 -55 64 -33 29 -60 59 -60 65 0 7 -18 23 -40
37 -22 14 -46 37 -54 53 -8 15 -30 34 -50 42 -22 8 -36 20 -36 31 0 21 -62 77
-104 94 -17 7 -41 27 -54 44 -12 17 -29 31 -36 31 -7 0 -21 9 -31 20 -10 11
-24 20 -31 20 -7 0 -19 8 -26 18 -7 9 -40 35 -73 57 -33 22 -81 57 -106 77
-25 21 -52 38 -61 38 -8 0 -23 9 -33 20 -10 11 -25 20 -33 20 -7 0 -28 10 -45
23 -41 28 -76 47 -91 47 -6 0 -26 12 -43 28 -76 66 -113 92 -132 92 -11 0 -23
5 -26 10 -3 6 -15 10 -25 10 -10 0 -20 4 -22 9 -4 13 -126 81 -144 81 -8 0
-14 4 -14 9 0 14 -78 61 -101 61 -57 0 -372 275 -402 350 -23 58 -33 76 -60
102 -20 19 -27 33 -22 47 3 11 2 28 -4 38 -30 55 -61 135 -61 157 0 14 -4 28
-10 31 -5 3 -10 19 -10 34 0 16 -7 45 -15 64 -10 25 -15 71 -15 140 0 81 3
107 15 117 8 7 15 27 15 44 0 32 36 116 72 168 10 14 18 34 18 43 0 10 29 47
64 81 50 51 70 64 94 64 17 0 34 5 37 10 3 6 19 10 34 10 15 0 31 4 37 9 5 5
23 12 39 14 42 7 283 -1 298 -10z m10027 -4758 c132 -28 263 -81 343 -137 114
-80 219 -214 268 -343 18 -49 49 -196 49 -236 l0 -37 -127 -8 c-71 -4 -188 -8
-262 -8 l-134 -1 -13 54 c-35 133 -98 215 -204 265 -62 28 -73 30 -219 34
-125 3 -166 1 -220 -13 -180 -48 -265 -149 -231 -274 31 -115 157 -178 550
-276 464 -115 658 -209 786 -379 56 -73 88 -136 117 -224 19 -59 22 -89 22
-242 -1 -167 -2 -178 -29 -250 -111 -296 -312 -456 -661 -527 -73 -14 -136
-18 -330 -18 -258 1 -318 8 -470 63 -223 79 -379 217 -480 425 -48 100 -95
263 -98 342 l-2 50 130 12 c72 6 177 16 234 22 148 16 138 18 150 -38 39 -183
130 -313 265 -380 210 -103 538 -69 679 71 66 67 92 128 92 218 0 84 -13 116
-66 168 -62 60 -195 110 -469 177 -265 64 -406 111 -545 183 -128 66 -256 194
-313 313 -114 235 -91 488 63 705 110 154 338 273 580 304 108 14 457 4 545
-15z m3020 -235 l0 -220 -377 -2 -378 -3 -3 -1063 -2 -1062 -263 2 -262 3 -3
1063 -2 1062 -375 0 -375 0 0 220 0 220 1020 0 1020 0 0 -220z m-20903 -50
c17 -75 27 -119 68 -310 20 -91 56 -255 80 -365 24 -110 60 -274 80 -365 19
-91 37 -174 40 -185 3 -11 19 -83 36 -160 17 -77 37 -171 46 -210 8 -38 21
-97 28 -130 18 -82 74 -337 90 -410 55 -246 65 -293 89 -405 8 -41 27 -123 40
-181 13 -59 28 -127 31 -153 4 -25 10 -48 14 -50 4 -3 22 52 40 122 19 70 51
190 72 267 20 77 58 219 83 315 25 96 58 218 72 270 14 52 33 127 44 165 10
39 32 122 49 185 32 120 92 345 155 585 21 77 48 181 61 230 39 144 172 643
201 755 8 30 17 63 20 73 5 16 39 17 534 17 l530 0 5 -22 c3 -13 66 -264 140
-558 73 -294 241 -962 371 -1485 131 -522 239 -952 241 -954 6 -9 15 8 24 46
16 65 71 316 80 363 5 25 13 63 19 85 5 22 26 114 45 205 20 91 48 217 62 280
14 63 29 135 34 160 5 25 13 63 19 85 14 58 61 272 71 325 5 25 13 63 19 85
11 48 58 255 75 340 7 33 21 94 30 135 9 41 24 107 32 145 28 135 66 309 118
540 7 33 20 93 29 134 9 40 19 77 22 82 8 14 894 12 894 -2 0 -10 -19 -90
-121 -509 -96 -394 -132 -540 -248 -1025 -28 -115 -55 -223 -60 -240 -5 -16
-12 -46 -16 -65 -4 -19 -32 -136 -62 -260 -30 -124 -72 -299 -94 -390 -21 -91
-43 -181 -49 -200 -5 -19 -25 -100 -44 -180 -19 -80 -58 -239 -86 -355 -105
-434 -120 -495 -164 -675 -24 -102 -61 -254 -81 -337 l-37 -153 -474 0 c-261
0 -474 2 -474 5 0 3 -29 114 -65 248 -36 133 -79 294 -95 357 -17 63 -37 140
-46 170 -24 88 -39 144 -88 330 -26 96 -51 191 -56 210 -5 19 -39 143 -74 275
-70 267 -163 615 -237 895 -27 102 -54 201 -59 220 -5 19 -26 96 -45 170 -20
74 -42 158 -50 185 -7 28 -22 82 -31 122 -10 40 -21 70 -24 67 -3 -3 -10 -27
-16 -52 -7 -26 -24 -92 -39 -147 -34 -127 -86 -323 -130 -490 -19 -71 -47
-179 -63 -240 -16 -60 -51 -191 -77 -290 -26 -99 -58 -218 -70 -265 -13 -47
-37 -139 -55 -205 -17 -66 -41 -154 -52 -195 -11 -41 -26 -97 -33 -125 -7 -27
-22 -84 -33 -125 -11 -41 -32 -118 -45 -170 -14 -52 -33 -122 -42 -155 -9 -33
-31 -118 -50 -190 -19 -71 -48 -182 -65 -245 -16 -63 -42 -160 -56 -215 -14
-55 -29 -110 -34 -123 l-10 -22 -482 2 -482 3 -21 90 c-12 50 -34 142 -49 205
-15 63 -38 160 -51 215 -42 173 -170 712 -216 905 -49 206 -82 343 -109 455
-16 66 -39 161 -50 210 -12 50 -34 146 -51 215 -16 69 -37 154 -45 190 -9 36
-20 81 -25 100 -5 19 -18 76 -29 125 -12 50 -34 146 -51 215 -32 134 -53 220
-94 395 -14 61 -39 164 -55 230 -33 136 -67 280 -105 440 -14 61 -42 174 -61
251 -18 78 -34 144 -34 148 0 3 206 5 457 4 l457 -3 13 -55z m8024 -2135 c482
-1204 874 -2193 870 -2198 -4 -4 -222 -6 -486 -5 l-478 3 -57 150 c-52 136
-177 462 -220 575 -10 25 -37 96 -60 158 l-43 112 -872 0 -872 0 -56 -152
c-31 -84 -81 -223 -112 -308 -31 -85 -85 -236 -121 -335 -36 -99 -67 -186 -70
-192 -3 -10 -106 -13 -474 -13 -406 0 -470 2 -470 15 0 14 30 99 50 140 5 11
30 74 56 140 25 66 68 179 96 250 96 247 121 310 138 355 10 25 36 92 58 150
23 58 64 164 92 235 28 72 69 175 90 230 104 268 163 420 204 530 26 66 51
129 56 140 5 11 49 121 96 245 48 124 109 281 136 350 27 69 73 188 103 265
29 77 72 187 95 245 36 91 67 171 140 360 15 40 85 217 193 495 19 50 49 127
67 173 l32 82 471 -2 472 -3 876 -2190z m2259 350 l0 -1805 1098 -2 1097 -3 3
-372 2 -373 -1545 0 -1545 0 0 2180 0 2180 445 0 445 0 0 -1805z m3740 0 l0
-1805 1100 0 1100 0 0 -375 0 -375 -1545 2 -1545 3 0 2173 c0 1194 0 2174 0
2177 0 3 200 5 445 5 l445 0 0 -1805z"/>
<path d="M18386 10871 c-4 -7 -5 -15 -2 -18 9 -9 19 4 14 18 -4 11 -6 11 -12
0z"/>
<path d="M10592 6540 c-5 -14 -24 -65 -42 -115 -17 -49 -58 -162 -90 -250 -32
-88 -93 -254 -134 -370 -82 -224 -173 -474 -255 -698 -28 -75 -51 -142 -51
-147 0 -12 1167 -14 1173 -2 2 4 -78 228 -178 497 -100 270 -192 515 -203 545
-185 502 -210 565 -220 540z"/>
<path d="M14227 21834 c-7 -7 -123 -19 -322 -32 -66 -4 -127 -12 -134 -17 -13
-7 -59 -15 -203 -31 -27 -3 -48 -10 -48 -15 0 -5 -16 -9 -36 -9 -19 0 -45 -5
-57 -12 -12 -7 -48 -13 -81 -14 -32 -2 -63 -7 -69 -13 -6 -6 -32 -11 -58 -11
-26 0 -51 -4 -54 -10 -3 -5 -17 -10 -31 -10 -24 0 -30 -2 -92 -33 -19 -9 -46
-17 -62 -17 -16 0 -32 -4 -35 -10 -3 -5 -28 -10 -55 -10 -27 0 -52 -4 -55 -10
-3 -5 -21 -10 -38 -10 -18 0 -52 -11 -76 -25 -23 -14 -51 -25 -60 -25 -10 0
-45 -11 -79 -25 -34 -14 -74 -25 -90 -25 -15 0 -32 -4 -38 -8 -5 -5 -29 -14
-54 -21 -25 -7 -53 -17 -62 -22 -10 -5 -26 -9 -36 -9 -10 0 -27 -7 -38 -15
-10 -8 -34 -15 -52 -15 -18 0 -41 -4 -52 -10 -11 -5 -29 -14 -40 -20 -11 -5
-26 -10 -34 -10 -17 0 -79 -32 -84 -42 -2 -5 -14 -8 -27 -8 -13 0 -27 -4 -30
-10 -3 -5 -18 -10 -33 -10 -15 0 -36 -6 -47 -13 -11 -7 -40 -19 -65 -26 -60
-18 -93 -33 -103 -48 -4 -7 -24 -13 -43 -13 -39 0 -139 -41 -224 -92 -19 -11
-46 -22 -60 -23 -14 -1 -47 -12 -73 -24 -27 -11 -52 -21 -56 -21 -4 0 -38 -16
-75 -35 -38 -19 -79 -35 -92 -35 -12 0 -26 -4 -29 -10 -3 -5 -17 -10 -31 -10
-14 0 -27 -7 -31 -15 -6 -18 -73 -55 -98 -55 -26 0 -17 -24 34 -87 27 -33 55
-71 62 -84 7 -13 23 -32 36 -42 13 -11 33 -38 45 -60 11 -23 33 -56 49 -74 15
-18 46 -63 68 -101 22 -38 48 -75 57 -83 10 -8 26 -33 36 -57 11 -23 30 -50
44 -59 14 -8 36 -35 50 -59 27 -46 249 -264 269 -264 7 0 37 -13 67 -29 30
-16 71 -32 90 -36 34 -7 38 -4 142 102 58 59 106 113 106 118 0 6 16 27 36 46
20 18 42 47 51 62 8 16 30 42 48 58 18 17 45 50 60 74 14 25 29 45 33 45 4 0
37 35 72 77 84 100 211 223 256 247 19 10 42 30 51 43 9 13 33 33 54 43 21 11
50 36 65 55 15 19 43 43 63 52 20 10 51 32 69 50 18 18 37 33 42 33 6 0 33 16
60 35 27 19 53 35 56 35 4 0 21 10 38 23 17 13 63 41 101 61 39 21 79 46 90
56 11 9 40 24 65 33 100 35 120 44 138 60 10 9 32 17 48 17 16 0 46 11 66 25
20 14 44 25 52 25 8 0 18 5 21 10 3 6 14 10 24 10 10 0 24 7 31 15 7 8 23 15
36 15 12 0 26 5 29 10 3 6 21 10 39 10 18 0 36 3 40 7 10 11 79 33 102 33 11
0 29 7 40 15 10 8 27 15 37 15 9 0 25 4 35 9 27 14 83 29 132 36 67 9 144 28
154 37 6 4 23 8 38 8 15 0 28 5 28 10 0 6 16 10 36 10 19 0 45 5 57 12 20 11
75 19 227 34 30 4 64 12 75 20 10 8 33 14 50 14 16 0 48 7 70 14 22 8 50 12
63 9 12 -3 29 0 36 7 15 12 30 14 221 29 109 9 266 34 285 46 18 11 -1 25 -34
25 -18 0 -36 3 -40 7 -12 12 -130 33 -246 43 -58 6 -143 15 -190 21 -98 12
-812 23 -823 13z"/>
</g>
</svg>
